<?xml version="1.0" encoding="UTF-8" standalone="no"?>
<!DOCTYPE svg PUBLIC "-//W3C//DTD SVG 1.1//EN" "http://www.w3.org/Graphics/SVG/1.1/DTD/svg11.dtd">
<svg width="100%" height="100%" viewBox="0 0 1612 1938" version="1.1" xmlns="http://www.w3.org/2000/svg" xmlns:xlink="http://www.w3.org/1999/xlink" xml:space="preserve" xmlns:serif="http://www.serif.com/" style="fill-rule:evenodd;clip-rule:evenodd;stroke-linejoin:round;stroke-miterlimit:2;">
    <g transform="matrix(1,0,0,1,-694.274,-95.3169)">
        <g transform="matrix(1.30748,0,0,1.30748,954.836,-403.638)">
            <text x="95.943px" y="1857.68px" style="font-family:'CiscoSans-Heavy', 'Cisco Sans', sans-serif;font-weight:900;font-size:379.226px;">CLI</text>
        </g>
        <path d="M2305.73,249.519C2305.73,164.412 2236.63,95.317 2151.52,95.317L848.476,95.317C763.37,95.317 694.274,164.412 694.274,249.519L694.274,1412.7C694.274,1497.81 763.37,1566.91 848.476,1566.91L2151.52,1566.91C2236.63,1566.91 2305.73,1497.81 2305.73,1412.7L2305.73,249.519ZM1630.07,653.416L1253.55,653.416L1253.55,740.929L1630.07,740.929L1630.07,653.416ZM895.934,290.402L1270.83,505.942L895.394,723.643L895.394,632.349L1114.71,507.022L895.934,383.316L895.934,290.402Z"/>
    </g>
</svg>
